<svg id="file-ppt" xmlns="http://www.w3.org/2000/svg" width="32.329" height="33.413" viewBox="0 0 32.329 33.413">
  <path id="Trazado_29708" data-name="Trazado 29708" d="M691.847,360.042l-8.741-8.845a.669.669,0,0,0-.475-.2H669.6a2.613,2.613,0,0,0-2.644,2.574v8.992h-5.279a1.955,1.955,0,0,0-1.978,1.926v9.642a1.955,1.955,0,0,0,1.978,1.926h5.279v5.783a2.61,2.61,0,0,0,2.644,2.57h19.784a2.609,2.609,0,0,0,2.644-2.568V360.488A.635.635,0,0,0,691.847,360.042Zm-9.052-7.307L689.97,360H682.8Zm-21.114,22.04a.651.651,0,0,1-.659-.641v-9.642a.651.651,0,0,1,.659-.641H679.5a.651.651,0,0,1,.659.641v9.642a.651.651,0,0,1-.659.641Zm29.031,7.07a1.305,1.305,0,0,1-1.324,1.283H669.6a1.306,1.306,0,0,1-1.324-1.284v-5.784H679.5a1.955,1.955,0,0,0,1.978-1.926v-9.642a1.955,1.955,0,0,0-1.978-1.926H668.28v-8.992a1.309,1.309,0,0,1,1.324-1.289h11.872v8.354a.651.651,0,0,0,.659.643h8.577Z" transform="translate(-659.703 -351)" fill="#00001c"/>
  <path id="Trazado_29709" data-name="Trazado 29709" d="M678.039,371.5v.933h1.682v4.586h1.144v-4.586h1.678V371.5Z" transform="translate(-664.012 -355.819)" fill="#00001c"/>
  <path id="Trazado_29710" data-name="Trazado 29710" d="M675.684,372.127a1.486,1.486,0,0,0-.816-.54,6.85,6.85,0,0,0-1.361-.083h-1.836v5.519h1.144v-2.081h.746a6.681,6.681,0,0,0,1.186-.08,1.685,1.685,0,0,0,.594-.262,1.525,1.525,0,0,0,.481-.544,1.762,1.762,0,0,0,.19-.854A1.683,1.683,0,0,0,675.684,372.127Zm-.98,1.52a.753.753,0,0,1-.357.271,3.051,3.051,0,0,1-.905.086h-.626v-1.567h.552a5.6,5.6,0,0,1,.824.038.793.793,0,0,1,.46.245.7.7,0,0,1,.182.5A.729.729,0,0,1,674.7,373.647Z" transform="translate(-662.516 -355.819)" fill="#00001c"/>
  <path id="Trazado_29711" data-name="Trazado 29711" d="M668.778,372.127a1.489,1.489,0,0,0-.815-.54,6.852,6.852,0,0,0-1.361-.083h-1.836v5.519h1.144v-2.081h.746a6.682,6.682,0,0,0,1.186-.08,1.692,1.692,0,0,0,.594-.262,1.525,1.525,0,0,0,.481-.544,1.762,1.762,0,0,0,.19-.854A1.682,1.682,0,0,0,668.778,372.127Zm-.98,1.52a.753.753,0,0,1-.357.271,3.05,3.05,0,0,1-.9.086h-.626v-1.567h.552a5.582,5.582,0,0,1,.823.038.792.792,0,0,1,.461.245.7.7,0,0,1,.181.5A.723.723,0,0,1,667.8,373.647Z" transform="translate(-660.893 -355.819)" fill="#00001c"/>
</svg>
