<svg id="file-jpg" xmlns="http://www.w3.org/2000/svg" width="32.329" height="33.413" viewBox="0 0 32.329 33.413">
  <path id="Trazado_29704" data-name="Trazado 29704" d="M622,360.042l-8.741-8.845a.67.67,0,0,0-.476-.2H599.753a2.612,2.612,0,0,0-2.644,2.574v8.992h-5.28a1.954,1.954,0,0,0-1.977,1.925v9.643a1.954,1.954,0,0,0,1.977,1.925h5.28v5.784a2.61,2.61,0,0,0,2.644,2.57h19.783a2.61,2.61,0,0,0,2.644-2.568V360.488A.638.638,0,0,0,622,360.042Zm-9.053-7.307L620.119,360h-7.175Zm-21.114,22.04a.65.65,0,0,1-.658-.64v-9.643a.65.65,0,0,1,.658-.64h17.816a.651.651,0,0,1,.659.64v9.643a.65.65,0,0,1-.659.64Zm29.031,7.071a1.306,1.306,0,0,1-1.325,1.283H599.753a1.306,1.306,0,0,1-1.324-1.284V376.06h11.217a1.954,1.954,0,0,0,1.978-1.925v-9.643a1.954,1.954,0,0,0-1.978-1.925H598.429v-8.992a1.308,1.308,0,0,1,1.324-1.289h11.871v8.354a.651.651,0,0,0,.66.643h8.577Z" transform="translate(-589.852 -351)" fill="#00001c"/>
  <path id="Trazado_29705" data-name="Trazado 29705" d="M609.29,374.035v.929h1.31v.7a2.478,2.478,0,0,1-.62.334,2.028,2.028,0,0,1-.721.137,1.517,1.517,0,0,1-1.176-.491,2.126,2.126,0,0,1-.448-1.474,1.919,1.919,0,0,1,.443-1.375,1.574,1.574,0,0,1,1.193-.463,1.388,1.388,0,0,1,.825.236,1.173,1.173,0,0,1,.451.642l1.136-.207a1.942,1.942,0,0,0-.763-1.192,2.763,2.763,0,0,0-1.648-.431,3,3,0,0,0-1.357.275,2.476,2.476,0,0,0-1.086,1.028,3.114,3.114,0,0,0-.371,1.532,3.283,3.283,0,0,0,.333,1.47,2.328,2.328,0,0,0,.993,1.039,3.167,3.167,0,0,0,1.551.363,3.878,3.878,0,0,0,1.382-.258,3.14,3.14,0,0,0,1.042-.6v-2.2Z" transform="translate(-593.755 -355.79)" fill="#00001c"/>
  <path id="Trazado_29706" data-name="Trazado 29706" d="M603.829,372.127a1.489,1.489,0,0,0-.815-.54,6.856,6.856,0,0,0-1.361-.083h-1.837v5.519h1.144v-2.082h.747a6.7,6.7,0,0,0,1.186-.079,1.691,1.691,0,0,0,.594-.262,1.525,1.525,0,0,0,.481-.544,1.764,1.764,0,0,0,.19-.854A1.685,1.685,0,0,0,603.829,372.127Zm-.98,1.519a.751.751,0,0,1-.358.272,3.04,3.04,0,0,1-.9.086h-.627v-1.567h.553a5.742,5.742,0,0,1,.823.037.8.8,0,0,1,.461.245.7.7,0,0,1,.181.5A.726.726,0,0,1,602.849,373.646Z" transform="translate(-592.194 -355.819)" fill="#00001c"/>
  <path id="Trazado_29707" data-name="Trazado 29707" d="M595.966,371.5v3.566a1.638,1.638,0,0,1-.158.883.633.633,0,0,1-.542.213.62.62,0,0,1-.565-.3,1.443,1.443,0,0,1-.143-.67l-1.079.121a1.845,1.845,0,0,0,.457,1.342,1.734,1.734,0,0,0,1.291.457,2.044,2.044,0,0,0,1.152-.291,1.5,1.5,0,0,0,.6-.774,3.469,3.469,0,0,0,.124-1.054V371.5Z" transform="translate(-590.705 -355.819)" fill="#00001c"/>
</svg>
