<svg xmlns="http://www.w3.org/2000/svg" width="32.329" height="33.413" viewBox="0 0 32.329 33.413">
  <g id="file-txt" transform="translate(-829.28 -1739.46)">
    <g id="file-txt-2" data-name="file-txt" transform="translate(829.28 1739.46)">
      <path id="Trazado_29700" data-name="Trazado 29700" d="M552.144,360.042,543.4,351.2a.671.671,0,0,0-.476-.2H529.9a2.613,2.613,0,0,0-2.644,2.574v8.992h-5.279A1.954,1.954,0,0,0,520,364.492v9.643a1.954,1.954,0,0,0,1.978,1.925h5.279v5.784a2.61,2.61,0,0,0,2.644,2.57h19.784a2.609,2.609,0,0,0,2.644-2.568V360.488A.635.635,0,0,0,552.144,360.042Zm-9.053-7.307L550.267,360h-7.175Zm-21.113,22.04a.65.65,0,0,1-.659-.64v-9.643a.651.651,0,0,1,.659-.64h17.816a.651.651,0,0,1,.659.64v9.643a.651.651,0,0,1-.659.64Zm29.031,7.071a1.306,1.306,0,0,1-1.324,1.283H529.9a1.306,1.306,0,0,1-1.324-1.284V376.06h11.218a1.954,1.954,0,0,0,1.978-1.925v-9.643a1.954,1.954,0,0,0-1.978-1.925H528.577v-8.992a1.309,1.309,0,0,1,1.324-1.289h11.871v8.354a.652.652,0,0,0,.66.643h8.577Z" transform="translate(-520 -351)" fill="#00001c"/>
    </g>
    <text id="FILE" transform="translate(832.279 1753.391)" font-size="7" font-family="GothamRounded-Bold, Gotham Rounded" font-weight="700" letter-spacing="0.003em"><tspan x="0" y="7">FILE</tspan></text>
  </g>
</svg>
