<svg xmlns="http://www.w3.org/2000/svg" width="862.446" height="952.484" viewBox="0 0 862.446 952.484">
  <g id="forms-background.8d59abd3" transform="translate(-385.933 -124.88)">
    <path id="Trazado_24005" data-name="Trazado 24005" d="M6.373,0h3.773V6.121c2.1,0,4.193,0,6.289.084V9.811H10.146V16.1H6.373V9.895H.084C0,8.637,0,7.379,0,6.121H6.373Z" transform="matrix(0.809, -0.588, 0.588, 0.809, 697.739, 134.541)" fill="#fff"/>
    <path id="Trazado_29738" data-name="Trazado 29738" d="M6.373,0h3.773V6.121c2.1,0,4.193,0,6.289.084V9.811H10.146V16.1H6.373V9.895H.084C0,8.637,0,7.379,0,6.121H6.373Z" transform="matrix(0.809, -0.588, 0.588, 0.809, 1225.619, 1022.035)" fill="#fff"/>
    <path id="Trazado_29234" data-name="Trazado 29234" d="M5.04.585c3.95-1.6,9.412,0,10.757,4.286C18.065,9.493,14.7,15.543,9.578,16.132c-4.034.84-7.984-1.933-9.244-5.715A8.287,8.287,0,0,1,5.04.585Zm.588,4.2c-2.437,1.765-1.765,4.874,0,6.891,2.269,1.345,5.631.756,6.555-1.933C14.2,5.963,8.653,1.677,5.628,4.787Z" transform="translate(1013.75 621.994)" fill="#fff"/>
    <path id="Trazado_29739" data-name="Trazado 29739" d="M5.04.585c3.95-1.6,9.412,0,10.757,4.286C18.065,9.493,14.7,15.543,9.578,16.132c-4.034.84-7.984-1.933-9.244-5.715A8.287,8.287,0,0,1,5.04.585Zm.588,4.2c-2.437,1.765-1.765,4.874,0,6.891,2.269,1.345,5.631.756,6.555-1.933C14.2,5.963,8.653,1.677,5.628,4.787Z" transform="translate(524.017 1061.082)" fill="#fff"/>
    <path id="Trazado_29233" data-name="Trazado 29233" d="M.014,0H14.031V5.47H5.6v7.977H-.1C.014,9,.014,4.445.014,0Z" transform="translate(386.033 661.4)" fill="#fff"/>
  </g>
</svg>
