<svg xmlns="http://www.w3.org/2000/svg" width="24.802" height="24.802" viewBox="0 0 24.802 24.802">
  <path id="icon-lenguaje" d="M24.113,16.481a12.4,12.4,0,0,0,0-8.159.893.893,0,0,0-.039-.112,12.4,12.4,0,0,0-23.342,0,.881.881,0,0,0-.039.112,12.4,12.4,0,0,0,0,8.159.893.893,0,0,0,.039.112,12.4,12.4,0,0,0,23.342,0A.886.886,0,0,0,24.113,16.481ZM12.4,23.024c-.472,0-1.234-.855-1.87-2.764A19.468,19.468,0,0,1,9.8,17.127h5.2a19.484,19.484,0,0,1-.732,3.133C13.636,22.169,12.875,23.024,12.4,23.024ZM9.585,15.349C9.5,14.4,9.454,13.413,9.454,12.4s.045-2,.131-2.949h5.636c.085.948.131,1.937.131,2.949s-.045,2-.131,2.949ZM1.78,12.4A10.593,10.593,0,0,1,2.2,9.452H7.8c-.083.967-.125,1.959-.125,2.949s.042,1.981.125,2.949H2.2A10.593,10.593,0,0,1,1.78,12.4ZM12.4,1.778c.472,0,1.234.855,1.87,2.764a19.47,19.47,0,0,1,.732,3.133H9.8a19.466,19.466,0,0,1,.732-3.133C11.169,2.632,11.93,1.778,12.4,1.778ZM17,9.452h5.606a10.641,10.641,0,0,1,0,5.9H17c.083-.967.125-1.959.125-2.949S17.087,10.42,17,9.452Zm4.911-1.778H16.8a17.06,17.06,0,0,0-1.62-5.528A10.669,10.669,0,0,1,21.915,7.675ZM9.625,2.147a17.06,17.06,0,0,0-1.62,5.528H2.891A10.67,10.67,0,0,1,9.625,2.147ZM2.891,17.127H8.006a17.062,17.062,0,0,0,1.62,5.528A10.67,10.67,0,0,1,2.891,17.127ZM15.18,22.655a17.06,17.06,0,0,0,1.62-5.528h5.115A10.669,10.669,0,0,1,15.18,22.655Z" transform="translate(-0.002)" fill="#fff"/>
</svg>
