<svg xmlns="http://www.w3.org/2000/svg" width="68.778" height="79.23" viewBox="0 0 68.778 79.23">
  <g id="icon-go-top" transform="translate(9460.254 -8342.77)">
    <g id="Grupo_19101" data-name="Grupo 19101" transform="translate(-11183.297 6648)">
      <g id="Grupo_16755" data-name="Grupo 16755" transform="translate(442.297 84)">
        <rect id="Rectángulo_7825" data-name="Rectángulo 7825" width="52" height="51" rx="25.5" transform="translate(1288 1639)" fill="#fff"/>
      </g>
      <path id="Trazado_29629" data-name="Trazado 29629" d="M1314.32,1659.29a1.3,1.3,0,0,0-1.64,0l-10.34,8.99a.916.916,0,0,0,0,1.42,1.271,1.271,0,0,0,1.64,0l9.52-8.27,9.52,8.27a1.271,1.271,0,0,0,1.64,0,.916.916,0,0,0,0-1.42Z" transform="translate(442.297 84)" fill="#2a0d5e"/>
    </g>
    <path id="Trazado_29740" data-name="Trazado 29740" d="M1.746,15.992a1.107,1.107,0,0,0,2.214,0V5.408a1.107,1.107,0,0,0-2.214,0Zm5.328.018a1.072,1.072,0,0,0,1.08,1.08,1.087,1.087,0,0,0,1.1-1.08V13.2c0-2.25,1.062-3.438,2.61-3.708a1.022,1.022,0,0,0,.864-1.044,1.011,1.011,0,0,0-1.08-1.08A3.021,3.021,0,0,0,9.252,9.458V8.486a1.091,1.091,0,0,0-1.1-1.1,1.076,1.076,0,0,0-1.08,1.1ZM22.644,17.2a3.863,3.863,0,0,0,3.1-1.386v.36a.984.984,0,0,0,1.062.918,1.038,1.038,0,0,0,1.062-1.044v-4.68a3.944,3.944,0,0,0-1.026-2.934,4.259,4.259,0,0,0-3.15-1.062,8.147,8.147,0,0,0-3.06.558.951.951,0,0,0-.594.864.907.907,0,0,0,.918.9,1.223,1.223,0,0,0,.342-.054A5.644,5.644,0,0,1,23.4,9.26c1.53,0,2.358.72,2.358,2.07v.234a7.94,7.94,0,0,0-2.556-.4c-2.322,0-3.924,1.008-3.924,3.06v.036C19.278,16.172,20.862,17.2,22.644,17.2Zm.612-1.584c-1.044,0-1.854-.522-1.854-1.44v-.036c0-.99.828-1.584,2.232-1.584a6.038,6.038,0,0,1,2.16.378v.648C25.794,14.786,24.7,15.614,23.256,15.614Zm7.218.4a1.072,1.072,0,0,0,1.08,1.08,1.087,1.087,0,0,0,1.1-1.08V13.2c0-2.25,1.062-3.438,2.61-3.708a1.022,1.022,0,0,0,.864-1.044,1.011,1.011,0,0,0-1.08-1.08,3.021,3.021,0,0,0-2.394,2.088V8.486a1.091,1.091,0,0,0-1.1-1.1,1.076,1.076,0,0,0-1.08,1.1Zm7.434,0a1.072,1.072,0,0,0,1.08,1.08,1.087,1.087,0,0,0,1.1-1.08V13.2c0-2.25,1.062-3.438,2.61-3.708A1.022,1.022,0,0,0,43.56,8.45a1.011,1.011,0,0,0-1.08-1.08,3.021,3.021,0,0,0-2.394,2.088V8.486a1.091,1.091,0,0,0-1.1-1.1,1.076,1.076,0,0,0-1.08,1.1Zm7.4-10.962a1.254,1.254,0,0,0,2.484,0V4.94a1.257,1.257,0,0,0-2.484,0Zm.162,10.962a1.089,1.089,0,0,0,2.178,0V8.486a1.091,1.091,0,0,0-1.1-1.1,1.076,1.076,0,0,0-1.08,1.1Zm5.022,0a1.089,1.089,0,0,0,2.178,0v-.486a3.882,3.882,0,0,0,3.24,1.674c2.25,0,4.41-1.782,4.41-4.932V12.23c0-3.168-2.178-4.932-4.41-4.932a3.8,3.8,0,0,0-3.24,1.782V4.85a1.076,1.076,0,0,0-1.1-1.08,1.061,1.061,0,0,0-1.08,1.08Zm4.9-.7a2.866,2.866,0,0,1-2.772-3.042V12.23a2.866,2.866,0,0,1,2.772-3.042A2.814,2.814,0,0,1,58.1,12.23v.036A2.783,2.783,0,0,1,55.386,15.308ZM65.3,17.2a3.863,3.863,0,0,0,3.1-1.386v.36a.984.984,0,0,0,1.062.918,1.038,1.038,0,0,0,1.062-1.044v-4.68A3.944,3.944,0,0,0,69.5,8.432a4.259,4.259,0,0,0-3.15-1.062,8.147,8.147,0,0,0-3.06.558.951.951,0,0,0-.594.864.907.907,0,0,0,.918.9,1.223,1.223,0,0,0,.342-.054A5.644,5.644,0,0,1,66.06,9.26c1.53,0,2.358.72,2.358,2.07v.234a7.94,7.94,0,0,0-2.556-.4c-2.322,0-3.924,1.008-3.924,3.06v.036C61.938,16.172,63.522,17.2,65.3,17.2Zm.612-1.584c-1.044,0-1.854-.522-1.854-1.44v-.036c0-.99.828-1.584,2.232-1.584a6.038,6.038,0,0,1,2.16.378v.648C68.454,14.786,67.356,15.614,65.916,15.614Z" transform="translate(-9462 8339)" fill="#fff"/>
  </g>
</svg>
