<svg id="icon-close" xmlns="http://www.w3.org/2000/svg" width="29.006" height="29.001" viewBox="0 0 29.006 29.001">
  <path id="Trazado_29698" data-name="Trazado 29698" d="M1172.492,91a1.493,1.493,0,0,1-1.05-2.548l26.017-26.016a1.488,1.488,0,0,1,2.1,2.11l-26.017,26.016A1.468,1.468,0,0,1,1172.492,91Z" transform="translate(-1170.998 -62)" fill="#1e0847"/>
  <path id="Trazado_29699" data-name="Trazado 29699" d="M1198.509,91a1.46,1.46,0,0,1-1.05-.438l-26.017-26.016a1.488,1.488,0,0,1,2.1-2.11l26.017,26.016A1.493,1.493,0,0,1,1198.509,91Z" transform="translate(-1170.998 -62)" fill="#1e0847"/>
</svg>
