<svg xmlns="http://www.w3.org/2000/svg" xmlns:xlink="http://www.w3.org/1999/xlink" width="185" height="189" viewBox="0 0 185 189">
  <defs>
    <clipPath id="clip-path">
      <rect id="Rectángulo_7930" data-name="Rectángulo 7930" width="185" height="189" transform="translate(28 20)"/>
    </clipPath>
  </defs>
  <g id="logo-ti" transform="translate(-28 -20)" clip-path="url(#clip-path)">
    <g id="Grupo_33341" data-name="Grupo 33341" transform="translate(3.508 -1744.647)">
      <path id="Trazado_37861" data-name="Trazado 37861" d="M180.837,1796.66a9.445,9.445,0,0,1-5.367,4.495,82.14,82.14,0,1,1-13.209-10.959,9.937,9.937,0,0,1,2.791-5.573c.2-.2.429-.348.642-.527a89.53,89.53,0,1,0,15.143,12.564Z" fill="#fff"/>
      <path id="Trazado_37862" data-name="Trazado 37862" d="M108.862,1776.91a15.184,15.184,0,1,0,4.446,10.735,15.184,15.184,0,0,0-4.446-10.735Zm-3.575,17.832a10.035,10.035,0,1,1,2.94-7.1,10.035,10.035,0,0,1-2.94,7.1Z" transform="translate(73.956 4.073)" fill="#fff"/>
      <g id="TI" transform="translate(82.511 1807.515)">
        <path id="TI-2" data-name="TI" d="M40.6-40.6H26.417V0H15.185V-40.6H1.075v-9.118H40.6ZM56.355,0h-11.2V-49.714h11.2Z" transform="translate(0 57)" fill="#fff"/>
      </g>
      <g id="Grupo_33274" data-name="Grupo 33274" transform="translate(64.659 1878.981)">
        <path id="Trazado_36033" data-name="Trazado 36033" d="M45.255,1820.37a5.956,5.956,0,0,1,2.091-1.37,6.316,6.316,0,0,1,2.4-.481,6.12,6.12,0,0,1,2.371.481,5.908,5.908,0,0,1,2.117,1.37l.875.866-1.753,1.759-.9-.866a3.84,3.84,0,0,0-5.419,0,3.36,3.36,0,0,0-.842,1.23,3.7,3.7,0,0,0,0,2.85,3.62,3.62,0,0,0,.842,1.253,3.7,3.7,0,0,0,2.709,1.12,3.962,3.962,0,0,0,1.47-.28,3.493,3.493,0,0,0,1.239-.84l.9-.863,1.748,1.76-.877.868a6.228,6.228,0,0,1-2.114,1.394,6.393,6.393,0,0,1-2.371.448,6.6,6.6,0,0,1-2.4-.448,6.311,6.311,0,0,1-2.089-1.394,5.992,5.992,0,0,1-1.382-2.07,6.412,6.412,0,0,1-.453-2.345,6.543,6.543,0,0,1,.453-2.38,6.011,6.011,0,0,1,1.382-2.061" transform="translate(-43.418 -1813.486)" fill="#fff" fill-rule="evenodd"/>
        <path id="Trazado_36034" data-name="Trazado 36034" d="M58.763,1826.62l1.778,1.765-.88.863a6.365,6.365,0,0,1-8.966,0,5.9,5.9,0,0,1-1.384-2.072,6.546,6.546,0,0,1-.453-2.371,6.364,6.364,0,0,1,.453-2.348,6.264,6.264,0,0,1,3.47-3.437,6.454,6.454,0,0,1,2.4-.479,6.228,6.228,0,0,1,2.373.479,5.9,5.9,0,0,1,2.114,1.37l.877.866-7.029,6.959a3.742,3.742,0,0,0,4.371-.726Zm-6.294-4.5a3.633,3.633,0,0,0-1.132,2.684,3.726,3.726,0,0,0,.394,1.652c.226-.226.562-.562,1.013-1.008.474-.467.959-.95,1.466-1.457.532-.518,1.029-1.01,1.5-1.477.492-.467.866-.833,1.134-1.094a3.9,3.9,0,0,0-2.292-.357,3.6,3.6,0,0,0-2.079,1.06" transform="translate(-36.161 -1813.454)" fill="#fff" fill-rule="evenodd"/>
        <path id="Trazado_36035" data-name="Trazado 36035" d="M54.225,1824.78a6.046,6.046,0,0,1,.481-2.432,6.407,6.407,0,0,1,1.349-1.984,6.3,6.3,0,0,1,2.035-1.337,6.084,6.084,0,0,1,2.457-.5,5.989,5.989,0,0,1,2.453.5,6.234,6.234,0,0,1,2.026,1.337,5.713,5.713,0,0,1,1.356,1.984,5.864,5.864,0,0,1,.516,2.432v6.294h-2.52v-6.294a3.822,3.822,0,0,0-1.127-2.656,3.465,3.465,0,0,0-1.211-.81,3.839,3.839,0,0,0-5.024,2.016,3.633,3.633,0,0,0-.285,1.449v6.294h-2.5Z" transform="translate(-29.005 -1813.468)" fill="#fff" fill-rule="evenodd"/>
        <path id="Trazado_36036" data-name="Trazado 36036" d="M61.86,1820.37a6,6,0,0,1,2.082-1.37,6.432,6.432,0,0,1,2.4-.481,6.191,6.191,0,0,1,2.373.481,5.95,5.95,0,0,1,2.112,1.37l.877.866-1.746,1.759-.91-.866a3.739,3.739,0,0,0-1.272-.84,3.84,3.84,0,0,0-2.873,0,3.739,3.739,0,0,0-1.272.84,3.433,3.433,0,0,0-.84,1.23,3.722,3.722,0,0,0,0,2.85,3.849,3.849,0,0,0,3.552,2.373,3.968,3.968,0,0,0,1.47-.278,3.56,3.56,0,0,0,1.237-.84l.91-.866,1.746,1.76-.877.868a6.245,6.245,0,0,1-2.112,1.394,6.411,6.411,0,0,1-2.373.448,6.66,6.66,0,0,1-2.4-.448,6.377,6.377,0,0,1-2.082-1.394,5.993,5.993,0,0,1-1.382-2.07,6.362,6.362,0,0,1-.453-2.345,6.5,6.5,0,0,1,.453-2.38,5.982,5.982,0,0,1,1.382-2.061" transform="translate(-21.266 -1813.486)" fill="#fff" fill-rule="evenodd"/>
        <path id="Trazado_36037" data-name="Trazado 36037" d="M65.456,1824.8a6.082,6.082,0,0,1,.476-2.432,6.308,6.308,0,0,1,1.354-1.983,6.161,6.161,0,0,1,2.035-1.345,6.042,6.042,0,0,1,2.446-.5,5.973,5.973,0,0,1,2.457.5,6.266,6.266,0,0,1,3.895,5.76,5.929,5.929,0,0,1-.509,2.429,6.121,6.121,0,0,1-1.351,2.012,6.329,6.329,0,0,1-8.97,0,6.752,6.752,0,0,1-1.354-2.012,6.246,6.246,0,0,1-.474-2.432m2.476,0a3.929,3.929,0,0,0,.282,1.482,4.237,4.237,0,0,0,.821,1.228,3.928,3.928,0,0,0,4.228.812,3.733,3.733,0,0,0,1.2-.812A3.913,3.913,0,0,0,75.6,1824.8a3.391,3.391,0,0,0-.31-1.452,3.321,3.321,0,0,0-.824-1.2,3.235,3.235,0,0,0-1.2-.81,3.757,3.757,0,0,0-2.989,0,3.506,3.506,0,0,0-1.239.81,3.852,3.852,0,0,0-.821,1.2,3.778,3.778,0,0,0-.282,1.452" transform="translate(-14.027 -1813.455)" fill="#fff" fill-rule="evenodd"/>
        <path id="Trazado_36038" data-name="Trazado 36038" d="M82.653,1818.52v2.5H75.006a1.25,1.25,0,0,0-1.265,1.26,1.3,1.3,0,0,0,.371.919,1.227,1.227,0,0,0,.894.362h5.083a3.49,3.49,0,0,1,1.468.308,3.654,3.654,0,0,1,1.214.782,3.465,3.465,0,0,1,.817,1.2,3.3,3.3,0,0,1,.315,1.456,3.474,3.474,0,0,1-.315,1.477,3.653,3.653,0,0,1-.817,1.2,3.956,3.956,0,0,1-1.214.813,3.855,3.855,0,0,1-1.468.275H72.476v-2.49h7.612a1.257,1.257,0,0,0,.938-.366,1.32,1.32,0,0,0,0-1.816,1.3,1.3,0,0,0-.938-.359H75.006a3.6,3.6,0,0,1-2.672-1.09,4.474,4.474,0,0,1-.819-1.2,3.864,3.864,0,0,1-.285-1.479,3.676,3.676,0,0,1,.285-1.457,3.938,3.938,0,0,1,.819-1.2,3.575,3.575,0,0,1,1.183-.777,3.686,3.686,0,0,1,1.489-.315Z" transform="translate(-6.326 -1813.486)" fill="#fff" fill-rule="evenodd"/>
        <path id="Trazado_36039" data-name="Trazado 36039" d="M89.674,1818.52v6.264a5.92,5.92,0,0,1-.506,2.427,6.1,6.1,0,0,1-1.358,2.016,6.622,6.622,0,0,1-2.03,1.37,6.264,6.264,0,0,1-2.448.471,6.452,6.452,0,0,1-2.455-.471,6.591,6.591,0,0,1-2.03-1.37,6.662,6.662,0,0,1-1.354-2.016,6.15,6.15,0,0,1-.485-2.427v-6.264H79.52v6.264a3.984,3.984,0,0,0,.285,1.482,3.72,3.72,0,0,0,2.035,2.04,3.813,3.813,0,0,0,5.021-2.04,3.682,3.682,0,0,0,.3-1.482v-6.264Z" transform="translate(1.379 -1813.486)" fill="#fff" fill-rule="evenodd"/>
        <path id="Trazado_36040" data-name="Trazado 36040" d="M95.425,1816.36v11.29a5.87,5.87,0,0,1-.5,2.427,6.151,6.151,0,0,1-1.354,2.019,6.272,6.272,0,0,1-2,1.365,6.592,6.592,0,0,1-4.91,0,6.8,6.8,0,0,1-2.037-1.358,6.6,6.6,0,0,1-1.377-2.019,6.148,6.148,0,0,1-.485-2.427,5.981,5.981,0,0,1,1.862-4.413,6.217,6.217,0,0,1,2.035-1.342,6.1,6.1,0,0,1,2.457-.509h3.806v-5.034Zm-6.313,15.092a3.783,3.783,0,0,0,1.463-.278,3.94,3.94,0,0,0,1.214-.812,3.7,3.7,0,0,0,.819-1.23,3.635,3.635,0,0,0,.31-1.482v-3.769h-3.8A4,4,0,0,0,86.37,1825a3.863,3.863,0,0,0-.814,1.2,3.645,3.645,0,0,0-.285,1.451,3.849,3.849,0,0,0,.285,1.482,4.275,4.275,0,0,0,.814,1.228,4.439,4.439,0,0,0,1.242.814,4.032,4.032,0,0,0,1.5.278" transform="translate(9.051 -1816.361)" fill="#fff" fill-rule="evenodd"/>
      </g>
    </g>
  </g>
</svg>
